<svg width="64" height="64" viewBox="0 0 64 64" fill="#3b82f6" xmlns="http://www.w3.org/2000/svg">
    <g transform="translate(-13.5 -9.5) scale(1.35, 1.30)">
        <!-- D-shaped background with inner cutout -->
        <path d="M12 8 L12 56 L36 56 C48.15 56 56 48.15 56 36 L56 28 C56 15.85 48.15 8 36 8 Z
             M 20 22 L42 22 C43.1 22 44 22.9 44 24 L44 40 C44 41.1 43.1 42 42 42 L20 42 C20.9 42 20 41.1 20 40 Z"/>
        <!-- FontAwesome terminal icon (scaled and positioned for favicon) -->
        <g transform="translate(23, 23) scale(0.032, 0.032)">
            <path d="M9.4 86.6C-3.1 74.1-3.1 53.9 9.4 41.4s32.8-12.5 45.3 0l192 192c12.5 12.5 12.5 32.8 0 45.3l-192 192c-12.5 12.5-32.8 12.5-45.3 0s-12.5-32.8 0-45.3L178.7 256 9.4 86.6zM256 416l288 0c17.7 0 32 14.3 32 32s-14.3 32-32 32l-288 0c-17.7 0-32-14.3-32-32s14.3-32 32-32z"/>
        </g>
    </g>
</svg>
